<svg xmlns="http://www.w3.org/2000/svg" viewBox="0 0 100 100"><rect width="100" height="100" rx="22" fill="#133A7C"/><g fill="#FAF7F0"><path transform="translate(16.591 64.48181818181818) scale(0.02199 -0.02199)" d="M155 0Q155 116 155.0 225.0Q155 334 155 467V950Q155 1086 155.0 1197.0Q155 1308 155 1426H1081V1193Q987 1193 878.5 1193.0Q770 1193 623 1193H279L429 1383Q429 1265 429.0 1153.5Q429 1042 429 906V511Q429 378 429.0 269.0Q429 160 429 43L297 233H644Q767 233 877.0 233.0Q987 233 1088 233V0ZM366 610V831H632Q766 831 862.0 831.0Q958 831 1047 831V610Q953 610 857.0 610.0Q761 610 631 610Z"/><path transform="translate(42.786 64.48181818181818) scale(0.02199 -0.02199)" d="M896 123 901 338H1004Q1149 338 1236.5 382.0Q1324 426 1364.0 509.0Q1404 592 1404 711Q1404 833 1364.5 916.5Q1325 1000 1239.0 1044.0Q1153 1088 1011 1088H911L906 1303H1014Q1256 1303 1405.5 1228.0Q1555 1153 1623.5 1020.0Q1692 887 1692 711Q1692 542 1624.0 409.0Q1556 276 1404.5 199.5Q1253 123 1000 123ZM762 123Q572 123 440.0 167.0Q308 211 226.5 290.5Q145 370 107.5 477.0Q70 584 70 711Q70 887 138.5 1020.0Q207 1153 356.5 1228.0Q506 1303 748 1303H855L850 1088H750Q609 1088 522.5 1044.0Q436 1000 396.5 916.5Q357 833 357 711Q357 592 397.0 509.0Q437 426 524.5 382.0Q612 338 757 338H860L865 123ZM741 -35Q741 18 741.0 66.0Q741 114 741 163L749 169Q749 238 749.0 310.0Q749 382 749 461V965Q749 1044 749.0 1116.0Q749 1188 749 1257L741 1263Q741 1312 741.0 1360.5Q741 1409 741 1461H1020Q1020 1409 1020.0 1360.5Q1020 1312 1020 1263L1012 1257Q1012 1188 1012.0 1116.0Q1012 1044 1012 965V461Q1012 382 1012.0 310.5Q1012 239 1012 169L1020 163Q1020 115 1020.0 66.5Q1020 18 1020 -35Z"/></g></svg>